<svg id="Capa_1" enable-background="new 0 0 512 512" height="512" viewBox="0 0 512 512" width="512" xmlns="http://www.w3.org/2000/svg"><g><path d="m467 51h-16v-25c0-8.284-6.716-15-15-15s-15 6.716-15 15v25h-30v-25c0-8.284-6.716-15-15-15s-15 6.716-15 15v25h-210v-25c0-8.284-6.716-15-15-15s-15 6.716-15 15v25h-30v-25c0-8.284-6.716-15-15-15s-15 6.716-15 15v25h-16c-24.813 0-45 20.187-45 45v360c0 24.813 20.187 45 45 45h422c24.813 0 45-20.187 45-45v-360c0-24.813-20.187-45-45-45zm-437 45c0-8.271 6.729-15 15-15h16v25c0 8.284 6.716 15 15 15s15-6.716 15-15v-25h30v25c0 8.284 6.716 15 15 15s15-6.716 15-15v-25h210v25c0 8.284 6.716 15 15 15s15-6.716 15-15v-25h30v25c0 8.284 6.716 15 15 15s15-6.716 15-15v-25h16c8.271 0 15 6.729 15 15v75h-452zm0 360v-255h91v270h-76c-8.271 0-15-6.729-15-15zm452 0c0 8.271-6.729 15-15 15h-316v-270h331z"/><path d="m196 141h120c8.284 0 15-6.716 15-15s-6.716-15-15-15h-120c-8.284 0-15 6.716-15 15s6.716 15 15 15z"/><path d="m196 441h240c8.284 0 15-6.716 15-15v-180c0-8.284-6.716-15-15-15h-240c-8.284 0-15 6.716-15 15v180c0 8.284 6.716 15 15 15zm225-90h-30v-30h30zm-60 0h-30v-30h30zm-60 0h-30v-30h30zm-60 0h-30v-30h30zm-30 30h30v30h-30zm60 0h30v30h-30zm60 0h30v30h-30zm90 30h-30v-30h30zm0-120h-30v-30h30zm-60 0h-30v-30h30zm-60 0h-30v-30h30zm-90-30h30v30h-30z"/></g></svg>