<svg version="1.1" id="Capa_1" xmlns="http://www.w3.org/2000/svg" xmlns:xlink="http://www.w3.org/1999/xlink" x="0px" y="0px"
	 viewBox="0 0 511.999 511.999" width="1.5em" height="1.5em" style="enable-background:new 0 0 511.999 511.999;" xml:space="preserve">
<svg id="Layer_1" enable-background="new 0 0 512 512" height="512" viewBox="0 0 512 512" width="512" xmlns="http://www.w3.org/2000/svg"><g><path d="m282.94 152.67c-15.744-31.903-22.421-45.476-25.164-51.031-.734-1.487-2.853-1.483-3.586.005l-25.13 51.026c-1.17 2.36-3.42 4-6.03 4.37l-56.23 8.177c-1.64.239-2.295 2.254-1.108 3.411l40.688 39.662c1.89 1.84 2.75 4.49 2.3 7.08l-9.605 56.016c-.28 1.634 1.441 2.877 2.909 2.105 54.955-28.906 51.299-27.36 54.016-27.36 2.754 0-.812-1.48 54.016 27.36 1.467.772 3.189-.471 2.909-2.105l-9.605-56.016c-.45-2.59.41-5.24 2.3-7.08l40.688-39.662c1.187-1.157.532-3.173-1.108-3.411l-56.23-8.177c-2.61-.37-4.86-2.01-6.03-4.37z"/><path d="m408 0h-304c-13.23 0-24 10.77-24 24v468.12c0 16.668 19.303 25.792 32.19 15.6l138.85-109.61c2.92-2.31 7-2.31 9.92 0l138.85 109.62c12.923 10.183 32.19 1.034 32.19-15.61v-468.12c0-13.23-10.77-24-24-24zm-47.62 177.26-39.827 38.816c-.471.459-.687 1.122-.575 1.77l9.402 54.823c2.243 13.05-11.501 23.027-23.22 16.87l-49.229-25.881c-.583-.306-1.279-.306-1.861 0l-49.23 25.882c-11.76 6.172-25.462-3.83-23.22-16.87l9.402-54.823c.111-.649-.104-1.311-.575-1.77l-39.827-38.817c-9.474-9.259-4.273-25.373 8.87-27.3l55.039-7.989c.652-.095 1.215-.504 1.506-1.094l24.615-49.877c5.867-11.884 22.83-11.892 28.7 0l24.615 49.877c.291.59.855 1 1.506 1.094l55.039 7.989c13.109 1.922 18.372 18.015 8.87 27.3z"/></g></svg>